<svg xmlns="http://www.w3.org/2000/svg" version="1.1" xmlns:xlink="http://www.w3.org/1999/xlink" xmlns:svgjs="http://svgjs.dev/svgjs" width="1500" height="1500" viewBox="0 0 1500 1500"><rect width="1500" height="1500" fill="#35524a"></rect><g transform="matrix(0.6666666666666666,0,0,0.6666666666666666,250.00003351562492,187.66666666666674)"><svg viewBox="0 0 320 360" data-background-color="#35524a" preserveAspectRatio="xMidYMid meet" height="1687" width="1500" xmlns="http://www.w3.org/2000/svg" xmlns:xlink="http://www.w3.org/1999/xlink"><g id="tight-bounds" transform="matrix(1,0,0,1,0.00001072500003829191,0)"><svg viewBox="0 0 320 360" height="360" width="320"><g><svg></svg></g><g><svg viewBox="0 0 320 360" height="360" width="320"><g><path transform="translate(-21.67367,-1.67367) scale(3.63347,3.63347)" d="M87.84 28.16c-3.42-5.92-31.01-21.84-37.84-21.84-6.83 0-34.41 15.92-37.84 21.84-3.19 5.51-3.19 38.18 0 43.69 3.43 5.91 31.01 21.83 37.84 21.83 6.83 0 34.42-15.92 37.84-21.84 3.19-5.51 3.19-38.17 0-43.68zM91.14 26.25c-3.98-6.88-32.88-23.75-41.14-23.75-8.26 0-37.16 16.87-41.14 23.75-3.86 6.66-3.86 40.84 0 47.5 3.98 6.88 32.88 23.75 41.14 23.75 8.26 0 37.16-16.87 41.14-23.74 3.86-6.67 3.86-40.85 0-47.51zM88.78 72.39c-3.51 6.07-31.78 22.38-38.78 22.38-7 0-35.27-16.32-38.78-22.39-3.27-5.65-3.27-39.13 0-44.78 3.51-6.06 31.78-22.37 38.78-22.37 7 0 35.27 16.32 38.78 22.38 3.27 5.65 3.27 39.13 0 44.78z" fill="#6d3d14" fill-rule="nonzero" stroke="none" stroke-width="1" stroke-linecap="butt" stroke-linejoin="miter" stroke-miterlimit="10" stroke-dasharray="" stroke-dashoffset="0" font-family="none" font-weight="none" font-size="none" text-anchor="none" style="mix-blend-mode: normal" data-fill-palette-color="tertiary"></path></g><g transform="matrix(1,0,0,1,48.000000000000014,142.63925939498162)"><svg viewBox="0 0 223.99999999999997 74.72148121003674" height="74.72148121003674" width="223.99999999999997"><g><svg viewBox="0 0 223.99999999999997 74.72148121003674" height="74.72148121003674" width="223.99999999999997"><g><svg viewBox="0 0 224.00000000000003 74.72148121003676" height="74.72148121003674" width="223.99999999999997"><g transform="matrix(1,0,0,1,0,46.18087306495741)"><svg viewBox="0 0 224.00000000000003 28.540608145079343" height="28.540608145079343" width="224.00000000000003"><g id="textblocktransform"><svg viewBox="0 0 224.00000000000003 28.540608145079343" height="28.540608145079343" width="224.00000000000003" id="textblock"><g><svg viewBox="0 0 224.00000000000003 28.540608145079343" height="28.540608145079343" width="224.00000000000003"><g transform="matrix(1,0,0,1,0,0)"><svg width="224.00000000000003" viewBox="1.34 -39.04 312.3 39.8" height="28.540608145079343" data-palette-color="#a57f60"><path d="M27.49-9.69L31.2-3.59Q28.76-1.49 25.73-0.37 22.71 0.76 19.46 0.76L19.46 0.76Q16.97 0.76 14.66 0.11 12.35-0.54 10.34-1.72 8.33-2.91 6.67-4.57 5-6.23 3.82-8.24 2.64-10.25 1.99-12.56 1.34-14.87 1.34-17.36L1.34-17.36Q1.34-19.85 1.99-22.17 2.64-24.49 3.82-26.5 5-28.52 6.67-30.18 8.33-31.84 10.34-33.02 12.35-34.2 14.66-34.85 16.97-35.5 19.46-35.5L19.46-35.5Q22.71-35.5 25.73-34.39 28.76-33.28 31.2-31.15L31.2-31.15 27.49-25.05Q25.95-26.71 23.85-27.6 21.75-28.49 19.46-28.49L19.46-28.49Q17.14-28.49 15.11-27.61 13.09-26.73 11.57-25.23 10.06-23.73 9.18-21.69 8.3-19.65 8.3-17.36L8.3-17.36Q8.3-15.06 9.18-13.05 10.06-11.04 11.57-9.52 13.09-8.01 15.11-7.13 17.14-6.25 19.46-6.25L19.46-6.25Q21.75-6.25 23.85-7.14 25.95-8.03 27.49-9.69L27.49-9.69ZM58.96-26.1L58.96 0 57.35 0 54.76-3.59Q53.81-2.73 52.74-1.99 51.68-1.25 50.51-0.7 49.34-0.15 48.11 0.17 46.87 0.49 45.6 0.49L45.6 0.49Q42.84 0.49 40.41-0.44 37.99-1.37 36.17-3.14 34.35-4.91 33.3-7.47 32.25-10.03 32.25-13.31L32.25-13.31Q32.25-16.36 33.3-18.91 34.35-21.46 36.17-23.29 37.99-25.12 40.41-26.14 42.84-27.15 45.6-27.15L45.6-27.15Q46.87-27.15 48.12-26.83 49.36-26.51 50.53-25.95 51.71-25.39 52.77-24.63 53.83-23.88 54.76-23L54.76-23 57.35-26.1 58.96-26.1ZM52.24-13.31L52.24-13.31Q52.24-14.67 51.72-15.95 51.19-17.24 50.29-18.23 49.39-19.21 48.18-19.81 46.97-20.41 45.6-20.41L45.6-20.41Q44.24-20.41 43.03-19.95 41.82-19.48 40.93-18.58 40.04-17.68 39.52-16.35 39.01-15.01 39.01-13.31L39.01-13.31Q39.01-11.6 39.52-10.27 40.04-8.94 40.93-8.03 41.82-7.13 43.03-6.67 44.24-6.2 45.6-6.2L45.6-6.2Q46.97-6.2 48.18-6.8 49.39-7.4 50.29-8.39 51.19-9.38 51.72-10.66 52.24-11.94 52.24-13.31ZM72.5-19.51L72.5 0 65.84 0 65.84-19.51 62.59-19.51 62.59-26.15 65.84-26.15 65.84-27.39Q65.84-29.81 66.76-31.93 67.67-34.06 69.27-35.63 70.87-37.21 72.99-38.12 75.12-39.04 77.53-39.04L77.53-39.04 82.54-39.04 82.54-32.4 77.53-32.4Q76.46-32.4 75.54-32.02 74.63-31.64 73.96-30.97 73.29-30.3 72.9-29.38 72.5-28.47 72.5-27.39L72.5-27.39 72.5-26.15 80.68-26.15 80.68-19.51 72.5-19.51ZM106.24-21.46L93.74-6.4Q94.13-6.27 94.52-6.24 94.91-6.2 95.31-6.2L95.31-6.2Q96.28-6.2 97.18-6.47 98.09-6.74 98.88-7.24 99.68-7.74 100.3-8.46 100.92-9.18 101.31-10.06L101.31-10.06 106.19-5.15Q105.27-3.83 104.06-2.78 102.85-1.73 101.45-1 100.04-0.27 98.49 0.11 96.94 0.49 95.31 0.49L95.31 0.49Q92.55 0.49 90.12-0.54 87.69-1.56 85.87-3.39 84.05-5.22 83-7.75 81.95-10.28 81.95-13.31L81.95-13.31Q81.95-16.41 83-18.97 84.05-21.53 85.87-23.34 87.69-25.15 90.12-26.15 92.55-27.15 95.31-27.15L95.31-27.15Q96.94-27.15 98.5-26.76 100.07-26.37 101.47-25.63 102.87-24.9 104.09-23.84 105.31-22.78 106.24-21.46L106.24-21.46ZM89.4-9.84L97.16-20.14Q96.7-20.31 96.24-20.36 95.79-20.41 95.31-20.41L95.31-20.41Q93.94-20.41 92.73-19.91 91.52-19.41 90.63-18.48 89.74-17.55 89.23-16.25 88.71-14.94 88.71-13.31L88.71-13.31Q88.71-12.94 88.75-12.48 88.79-12.01 88.87-11.54 88.96-11.06 89.08-10.62 89.2-10.18 89.4-9.84L89.4-9.84ZM127.75 0L122.7 0Q120.28 0 118.15-0.92 116.03-1.83 114.43-3.43 112.83-5.03 111.92-7.15 111-9.28 111-11.69L111-11.69 111-19.46 107.75-19.46 107.75-26.1 111-26.1 111-36.55 117.64-36.55 117.64-26.1 127.75-26.1 127.75-19.46 117.64-19.46 117.64-11.69Q117.64-10.64 118.03-9.73 118.42-8.81 119.11-8.13 119.79-7.45 120.72-7.04 121.65-6.64 122.7-6.64L122.7-6.64 127.75-6.64 127.75 0ZM154.38-21.46L141.88-6.4Q142.27-6.27 142.66-6.24 143.05-6.2 143.44-6.2L143.44-6.2Q144.42-6.2 145.32-6.47 146.23-6.74 147.02-7.24 147.81-7.74 148.44-8.46 149.06-9.18 149.45-10.06L149.45-10.06 154.33-5.15Q153.41-3.83 152.2-2.78 150.99-1.73 149.58-1 148.18-0.27 146.63 0.11 145.08 0.49 143.44 0.49L143.44 0.49Q140.69 0.49 138.26-0.54 135.83-1.56 134.01-3.39 132.19-5.22 131.14-7.75 130.09-10.28 130.09-13.31L130.09-13.31Q130.09-16.41 131.14-18.97 132.19-21.53 134.01-23.34 135.83-25.15 138.26-26.15 140.69-27.15 143.44-27.15L143.44-27.15Q145.08-27.15 146.64-26.76 148.21-26.37 149.61-25.63 151.01-24.9 152.23-23.84 153.45-22.78 154.38-21.46L154.38-21.46ZM137.54-9.84L145.3-20.14Q144.84-20.31 144.38-20.36 143.93-20.41 143.44-20.41L143.44-20.41Q142.08-20.41 140.87-19.91 139.66-19.41 138.77-18.48 137.88-17.55 137.37-16.25 136.85-14.94 136.85-13.31L136.85-13.31Q136.85-12.94 136.89-12.48 136.93-12.01 137.01-11.54 137.1-11.06 137.22-10.62 137.34-10.18 137.54-9.84L137.54-9.84ZM164.39-14.4L164.39 0 157.72 0 157.72-26.15 159.34-26.15 161.53-23.05Q163.14-24.51 165.19-25.31 167.25-26.1 169.44-26.1L169.44-26.1 175.33-26.1 175.33-19.46 169.44-19.46Q168.39-19.46 167.47-19.07 166.54-18.68 165.85-17.99 165.17-17.31 164.78-16.38 164.39-15.45 164.39-14.4L164.39-14.4ZM186.29-33.25L186.29-33.25Q186.29-32.32 185.93-31.52 185.58-30.71 184.97-30.11 184.36-29.52 183.54-29.16 182.72-28.81 181.79-28.81L181.79-28.81Q180.87-28.81 180.05-29.16 179.23-29.52 178.63-30.11 178.03-30.71 177.68-31.52 177.33-32.32 177.33-33.25L177.33-33.25Q177.33-34.16 177.68-34.97 178.03-35.79 178.63-36.39 179.23-36.99 180.05-37.34 180.87-37.7 181.79-37.7L181.79-37.7Q182.72-37.7 183.54-37.34 184.36-36.99 184.97-36.39 185.58-35.79 185.93-34.97 186.29-34.16 186.29-33.25ZM185.14-26.15L185.14 0 178.42 0 178.42-26.15 185.14-26.15ZM215.53-26.1L215.53 0 213.92 0 211.33-3.59Q210.38-2.73 209.32-1.99 208.26-1.25 207.08-0.7 205.91-0.15 204.68 0.17 203.45 0.49 202.18 0.49L202.18 0.49Q199.42 0.49 196.99-0.44 194.56-1.37 192.74-3.14 190.92-4.91 189.87-7.47 188.82-10.03 188.82-13.31L188.82-13.31Q188.82-16.36 189.87-18.91 190.92-21.46 192.74-23.29 194.56-25.12 196.99-26.14 199.42-27.15 202.18-27.15L202.18-27.15Q203.45-27.15 204.69-26.83 205.94-26.51 207.11-25.95 208.28-25.39 209.34-24.63 210.4-23.88 211.33-23L211.33-23 213.92-26.1 215.53-26.1ZM208.82-13.31L208.82-13.31Q208.82-14.67 208.29-15.95 207.77-17.24 206.86-18.23 205.96-19.21 204.75-19.81 203.54-20.41 202.18-20.41L202.18-20.41Q200.81-20.41 199.6-19.95 198.39-19.48 197.5-18.58 196.61-17.68 196.1-16.35 195.59-15.01 195.59-13.31L195.59-13.31Q195.59-11.6 196.1-10.27 196.61-8.94 197.5-8.03 198.39-7.13 199.6-6.67 200.81-6.2 202.18-6.2L202.18-6.2Q203.54-6.2 204.75-6.8 205.96-7.4 206.86-8.39 207.77-9.38 208.29-10.66 208.82-11.94 208.82-13.31ZM242.31-35.01L242.31 0 235.3 0 235.3-35.01 242.31-35.01ZM283.1-17.36L283.1-17.36Q283.1-14.87 282.46-12.56 281.81-10.25 280.64-8.24 279.46-6.23 277.8-4.57 276.14-2.91 274.14-1.72 272.14-0.54 269.82 0.11 267.5 0.76 265.01 0.76L265.01 0.76Q262.52 0.76 260.21 0.11 257.91-0.54 255.89-1.72 253.88-2.91 252.22-4.57 250.56-6.23 249.37-8.24 248.19-10.25 247.54-12.56 246.9-14.87 246.9-17.36L246.9-17.36Q246.9-19.85 247.54-22.17 248.19-24.49 249.37-26.49 250.56-28.49 252.22-30.15 253.88-31.81 255.89-32.98 257.91-34.16 260.21-34.8 262.52-35.45 265.01-35.45L265.01-35.45Q267.5-35.45 269.82-34.8 272.14-34.16 274.14-32.98 276.14-31.81 277.8-30.15 279.46-28.49 280.64-26.49 281.81-24.49 282.46-22.17 283.1-19.85 283.1-17.36ZM276.14-17.36L276.14-17.36Q276.14-19.65 275.27-21.69 274.39-23.73 272.89-25.23 271.38-26.73 269.35-27.61 267.31-28.49 265.01-28.49L265.01-28.49Q262.69-28.49 260.67-27.61 258.64-26.73 257.13-25.23 255.61-23.73 254.73-21.69 253.85-19.65 253.85-17.36L253.85-17.36Q253.85-15.06 254.73-13.05 255.61-11.04 257.13-9.52 258.64-8.01 260.67-7.13 262.69-6.25 265.01-6.25L265.01-6.25Q267.31-6.25 269.35-7.13 271.38-8.01 272.89-9.52 274.39-11.04 275.27-13.05 276.14-15.06 276.14-17.36ZM285.64-24.51L285.64-24.51Q285.64-26.68 286.47-28.59 287.3-30.49 288.73-31.92 290.16-33.35 292.06-34.18 293.96-35.01 296.14-35.01L296.14-35.01 312.2-35.01 312.2-28 296.14-28Q295.4-28 294.77-27.73 294.14-27.47 293.66-26.99 293.18-26.51 292.91-25.88 292.65-25.24 292.65-24.51L292.65-24.51Q292.65-23.78 292.91-23.13 293.18-22.49 293.66-22.01 294.14-21.53 294.77-21.26 295.4-21 296.14-21L296.14-21 303.14-21Q305.32-21 307.23-20.18 309.15-19.36 310.58-17.93 312.01-16.5 312.82-14.59 313.64-12.67 313.64-10.5L313.64-10.5Q313.64-8.33 312.82-6.42 312.01-4.52 310.58-3.09 309.15-1.66 307.23-0.83 305.32 0 303.14 0L303.14 0 287.59 0 287.59-7.01 303.14-7.01Q303.88-7.01 304.51-7.28 305.15-7.54 305.62-8.02 306.1-8.5 306.37-9.13 306.64-9.77 306.64-10.5L306.64-10.5Q306.64-11.23 306.37-11.87 306.1-12.5 305.62-12.98 305.15-13.45 304.51-13.72 303.88-13.99 303.14-13.99L303.14-13.99 296.14-13.99Q293.96-13.99 292.06-14.82 290.16-15.65 288.73-17.08 287.3-18.51 286.47-20.42 285.64-22.34 285.64-24.51Z" opacity="1" transform="matrix(1,0,0,1,0,0)" fill="#a57f60" class="wordmark-text-0" data-fill-palette-color="quaternary" id="text-0"></path></svg></g></svg></g></svg></g></svg></g><g transform="matrix(1,0,0,1,84.79610416313,0)"><svg viewBox="0 0 54.40779167374004 39.443120456499656" height="39.443120456499656" width="54.40779167374004"><g><svg xmlns="http://www.w3.org/2000/svg" xmlns:xlink="http://www.w3.org/1999/xlink" version="1.1" x="0" y="0" viewBox="5.5 17.144444444444446 78.97824266379982 57.25555555555556" enable-background="new 0 0 90 90" xml:space="preserve" height="39.443120456499656" width="54.40779167374004" class="icon-icon-0" data-fill-palette-color="quaternary" id="icon-0"><path d="M84.3 39.5c-0.5-3.6-2.1-6.4-4.6-8.3-1.8-1.3-3.8-1.9-5.7-2.2 0.3-2.2 0.5-4.3 0.5-6.3-37.8-12.5-69 0-69 0 0 13.7 7.7 30.9 19 39.8C15.2 63.7 9.1 65.7 9.1 68c0 3.5 14.2 6.4 31.8 6.4 17.6 0 31.8-2.9 31.8-6.4 0-2.4-6.8-4.6-16.8-5.7 2.5-2 4.9-4.5 7-7.3 1.6-0.2 6.6-1.1 6.8-1.1 1.5 0 8.6-0.3 12.5-5.1C83.5 47.1 85 44.1 84.3 39.5zM77.2 44.1c-1.8 2.3-6.3 2.7-7.8 2.7l-0.3 0-1.2 0.2c1.9-3.6 3.4-7.3 4.5-11.1 1.3 0.1 2.7 0.4 3.6 1.2 1 0.7 1.6 1.8 1.8 3.4C78.2 42.6 77.6 43.6 77.2 44.1z" fill="#a57f60" data-fill-palette-color="quaternary"></path></svg></g></svg></g><g></g></svg></g></svg></g></svg></g></svg></g><defs></defs></svg><rect width="320" height="360" fill="none" stroke="none" visibility="hidden"></rect></g></svg></g></svg>